<svg width="512" height="512" viewBox="0 0 512 512" fill="none" xmlns="http://www.w3.org/2000/svg">
<path d="M116 131L144 484H367L396 131H116Z" fill="#5FA8ED"/>
<path d="M386.05 73.59H125.95L139.08 37.01C139.978 34.5025 141.63 32.3341 143.809 30.8017C145.987 29.2693 148.586 28.4479 151.25 28.45H361.62C364.329 28.4501 366.969 29.3018 369.167 30.8846C371.366 32.4673 373.011 34.7011 373.87 37.27L386.05 73.59Z" fill="#E1B7A3"/>
<path d="M146 131H116L121.632 202H151.632L146 131Z" fill="#498BB7"/>
<path d="M165.83 381H135.83L144 484H174L165.83 381Z" fill="#498BB7"/>
<path d="M110 202L124 381H387.855L401.8 202H110Z" fill="#FB6771"/>
<path d="M397.78 256L391.64 333H295.62C284.97 342 271.08 348.91 255.88 348.91C240.68 348.91 226.78 342 216.13 333H121L120.37 333.05L114.22 256H216.13C226.78 247 240.67 240.09 255.88 240.09C271.09 240.09 284.97 247 295.62 256H397.78Z" fill="#6ADDC7"/>
<path d="M140 202H110L114.223 256H144.22H144.223L140 202Z" fill="#C95566"/>
<path d="M150.246 333H121L120.37 333.05L114.394 258.174L124 381H154L150.246 333Z" fill="#C95566"/>
<path d="M144 256H114.224H114.22L120.37 333.05L121 333H150L144 256Z" fill="#56AF9E"/>
<path d="M156.162 73L169.08 37.01C169.978 34.5025 171.63 32.3341 173.809 30.8017C175.987 29.2693 178.586 28.4479 181.25 28.45H151.25C148.586 28.4479 145.987 29.2693 143.809 30.8017C141.63 32.3341 139.978 34.5025 139.08 37.01L126.162 73H156.162Z" fill="#C19D91"/>
<path d="M406.82 73H105.18C98.05 73 92 78.37 92 85.51V131H420V85.51C420 78.37 413.95 73 406.82 73Z" fill="#C79A83"/>
<path d="M126.162 73H105.18C98.05 73 92 78.37 92 85.51V131H122V85.51C122 78.37 128.05 73 135.18 73H126.162Z" fill="#A0796A"/>
<path d="M133.448 104.186H129.148C127.557 104.186 126.031 103.554 124.905 102.429C123.78 101.303 123.148 99.7773 123.148 98.186C123.148 96.5947 123.78 95.0686 124.905 93.9433C126.031 92.8181 127.557 92.186 129.148 92.186H133.448C135.039 92.186 136.565 92.8181 137.691 93.9433C138.816 95.0686 139.448 96.5947 139.448 98.186C139.448 99.7773 138.816 101.303 137.691 102.429C136.565 103.554 135.039 104.186 133.448 104.186Z" fill="#F4F8FC"/>
<path d="M234.448 104.186H152.448C150.857 104.186 149.331 103.554 148.205 102.429C147.08 101.303 146.448 99.7773 146.448 98.186C146.448 96.5947 147.08 95.0686 148.205 93.9433C149.331 92.8181 150.857 92.186 152.448 92.186H234.448C236.039 92.186 237.565 92.8181 238.691 93.9433C239.816 95.0686 240.448 96.5947 240.448 98.186C240.448 99.7773 239.816 101.303 238.691 102.429C237.565 103.554 236.039 104.186 234.448 104.186Z" fill="#F4F8FC"/>
</svg>
