<svg width="512" height="512" viewBox="0 0 512 512" fill="none" xmlns="http://www.w3.org/2000/svg">
<path d="M259.891 339H252.109L117.789 453.613L125.571 462.829L250 356.889V458H262V356.889L386.429 462.911L394.211 453.613L259.891 339Z" fill="#D4E1F4"/>
<path d="M427.09 87H84.91C81.1125 87.0433 77.4872 88.5916 74.83 91.305C72.1478 94.045 70.647 97.7276 70.65 101.562C70.6451 105.362 72.1402 109.01 74.8105 111.714C77.4808 114.418 81.1103 115.958 84.91 116H427.09C430.936 116 434.624 114.472 437.343 111.753C440.062 109.034 441.59 105.346 441.59 101.5C441.59 97.6544 440.062 93.9662 437.343 91.2469C434.624 88.5277 430.936 87 427.09 87Z" fill="#6D7486"/>
<path d="M427.09 315H84.91C81.1046 315.067 77.4805 316.638 74.83 319.37C72.1468 322.098 70.6453 325.773 70.65 329.6C70.6449 333.397 72.1412 337.041 74.8126 339.739C77.484 342.436 81.1137 343.968 84.91 344H427.09C430.936 344 434.624 342.472 437.343 339.753C440.062 337.034 441.59 333.346 441.59 329.5C441.59 325.654 440.062 321.966 437.343 319.247C434.624 316.528 430.936 315 427.09 315Z" fill="#6D7486"/>
<path d="M413.32 463.72V471.83H367.32V463.72C367.32 462.246 367.609 460.787 368.173 459.426C368.737 458.064 369.563 456.827 370.605 455.785C371.647 454.743 372.884 453.917 374.246 453.353C375.607 452.789 377.066 452.499 378.54 452.5H402.1C403.574 452.499 405.033 452.789 406.394 453.353C407.756 453.917 408.993 454.743 410.035 455.785C411.077 456.827 411.903 458.064 412.467 459.426C413.031 460.787 413.321 462.246 413.32 463.72Z" fill="#6D7486"/>
<path d="M279 463.72V471.83H233V463.72C232.999 462.246 233.289 460.787 233.853 459.426C234.417 458.064 235.243 456.827 236.285 455.785C237.327 454.743 238.564 453.917 239.926 453.353C241.287 452.789 242.746 452.499 244.22 452.5H267.78C269.254 452.499 270.713 452.789 272.074 453.353C273.436 453.917 274.673 454.743 275.715 455.785C276.757 456.827 277.583 458.064 278.147 459.426C278.711 460.787 279.001 462.246 279 463.72Z" fill="#6D7486"/>
<path d="M144.33 463.72V471.83H98.3301V463.72C98.3296 462.246 98.6194 460.787 99.1831 459.426C99.7467 458.064 100.573 456.827 101.615 455.785C102.657 454.743 103.894 453.917 105.256 453.353C106.617 452.789 108.077 452.499 109.55 452.5H133.12C134.593 452.501 136.051 452.791 137.412 453.355C138.772 453.92 140.008 454.746 141.049 455.788C142.09 456.83 142.916 458.067 143.479 459.428C144.042 460.789 144.331 462.247 144.33 463.72Z" fill="#6D7486"/>
<path d="M416.84 115.77V315.38H95.16V115.77H416.84Z" fill="#AFCBE2"/>
<path d="M179.78 189.24C171.961 189.241 164.315 191.537 157.789 195.843C151.263 200.149 146.144 206.275 143.067 213.463C139.99 220.651 139.091 228.584 140.481 236.278C141.87 243.972 145.487 251.09 150.884 256.747C156.281 262.405 163.219 266.354 170.839 268.105C178.459 269.856 186.426 269.333 193.751 266.599C201.076 263.865 207.437 259.041 212.047 252.725C216.656 246.409 219.31 238.88 219.68 231.07L179.78 189.24Z" fill="#EADF53"/>
<path d="M232.71 228.56C232.71 229.4 232.69 230.24 232.65 231.07H179.78V175.63C186.731 175.63 193.614 176.998 200.036 179.658C206.458 182.318 212.293 186.217 217.208 191.132C222.123 196.047 226.022 201.882 228.682 208.304C231.342 214.726 232.71 221.609 232.71 228.56Z" fill="#D8FF33"/>
<path d="M355.59 209.28H379.7V268.25H355.59V209.28Z" fill="#3090FC"/>
<path d="M313.56 188.37H337.67V268.25H313.56V188.37Z" fill="#3090FC"/>
<path d="M271.53 159.67H295.64V268.25H271.53V159.67Z" fill="#3090FC"/>
<path d="M196 63H316V87H196V63Z" fill="#FB6771"/>
<path d="M268.33 62.83V62.87H243.67V62.83V34.17H268.33V62.83Z" fill="#E75163"/>
<path d="M84.91 116H114.91C111.11 115.958 107.481 114.418 104.81 111.714C102.14 109.01 100.645 105.362 100.65 101.562C100.647 97.7276 102.148 94.045 104.83 91.305C107.487 88.5916 111.112 87.0433 114.91 87H84.91C81.1125 87.0433 77.4872 88.5916 74.83 91.305C72.1478 94.045 70.647 97.7276 70.65 101.562C70.6451 105.362 72.1402 109.01 74.8105 111.714C77.4808 114.418 81.1103 115.958 84.91 116Z" fill="#4A5160"/>
<path d="M100.65 329.6C100.645 325.773 102.147 322.098 104.83 319.37C107.48 316.638 111.105 315.067 114.91 315H84.91C81.1046 315.067 77.4805 316.638 74.83 319.37C72.1468 322.098 70.6453 325.773 70.65 329.6C70.6449 333.397 72.1412 337.041 74.8126 339.739C77.484 342.436 81.1137 343.968 84.91 344H114.91C111.114 343.968 107.484 342.436 104.813 339.739C102.141 337.041 100.645 333.397 100.65 329.6Z" fill="#4A5160"/>
<path d="M95.16 115.77H125.16V315.38H95.16V115.77Z" fill="#93B5CC"/>
<path d="M196 63H226V87H196V63Z" fill="#E75163"/>
<path d="M120.507 149.444C118.916 149.444 117.39 148.812 116.264 147.687C115.139 146.561 114.507 145.035 114.507 143.444V139.844C114.507 138.253 115.139 136.727 116.264 135.601C117.39 134.476 118.916 133.844 120.507 133.844C122.098 133.844 123.624 134.476 124.75 135.601C125.875 136.727 126.507 138.253 126.507 139.844V143.444C126.507 145.035 125.875 146.561 124.75 147.687C123.624 148.812 122.098 149.444 120.507 149.444Z" fill="white"/>
<path d="M120.507 249.029C118.916 249.029 117.39 248.397 116.264 247.272C115.139 246.146 114.507 244.62 114.507 243.029V163.522C114.507 161.931 115.139 160.405 116.264 159.279C117.39 158.154 118.916 157.522 120.507 157.522C122.098 157.522 123.624 158.154 124.75 159.279C125.875 160.405 126.507 161.931 126.507 163.522V243.029C126.507 244.62 125.875 246.146 124.75 247.272C123.624 248.397 122.098 249.029 120.507 249.029Z" fill="white"/>
</svg>
