<svg width="512" height="512" viewBox="0 0 512 512" fill="none" xmlns="http://www.w3.org/2000/svg">
<path d="M159.79 57.57H139.83C139.069 57.57 138.339 57.8724 137.801 58.4106C137.262 58.9488 136.96 59.6788 136.96 60.44V218.65H149.18L162.66 178.99V60.44C162.658 59.6793 162.355 58.9502 161.818 58.4124C161.28 57.8745 160.551 57.5716 159.79 57.57Z" fill="#978CAC"/>
<path d="M461.23 56.755C461.23 41.435 448.3 29 432.35 29H209.86C220.13 29 228 37.34 228 47.61L228.22 203.65L264.226 303.117L461.31 297.948L461.23 56.755Z" fill="#DDECF5"/>
<path d="M228.45 167.65C224.65 167.44 220.75 167.33 216.77 167.33C194.63 167.33 174.99 170.73 162.66 175.99C154.19 179.59 149.18 184.198 149.18 189.048L149 189V425.665C149 435.465 169.411 443.742 197.42 446.375C204.657 447.318 211.964 447.605 219.252 447.233C255.293 446.771 284 437.291 284 425.665L284.36 188.92C284.36 178.27 260.21 169.42 228.45 167.65Z" fill="#F9D438"/>
<path d="M227.42 446.375C199.411 443.742 179 435.467 179 425.665V189L179.18 189.048C179.18 184.198 184.19 179.59 192.66 175.99C202.126 171.952 215.908 169.017 231.814 167.868C230.702 167.788 229.582 167.713 228.45 167.65C224.65 167.44 220.75 167.33 216.77 167.33C194.63 167.33 174.99 170.73 162.66 175.99C154.19 179.59 149.18 184.198 149.18 189.048L149 189V425.665C149 435.465 169.411 443.742 197.42 446.375C204.657 447.318 211.964 447.605 219.252 447.233C223.182 447.183 227.017 447.019 230.745 446.763C229.637 446.649 228.529 446.524 227.42 446.375Z" fill="#DDBF40"/>
<path d="M235.96 283.49L216.11 321.13C205 321.13 161.35 318.56 149.18 308.52V262.79C149.18 274.71 179.44 284.37 216.77 284.37C225.19 284.37 228.52 284.39 235.96 283.49Z" fill="#EDB740"/>
<path d="M216.77 210.51C254.1 210.51 284.36 200.84 284.36 188.92L283.94 226.82C283.94 238.74 254.1 247.62 216.77 247.62C179.44 247.62 149.18 237.96 149.18 226.03V188.92C149.18 200.84 179.44 210.51 216.77 210.51Z" fill="#EDB740"/>
<path d="M284.355 388.385V393.665C284.355 405.585 254.095 415.255 216.775 415.255C179.455 415.255 149.185 405.585 149.185 393.665V354.745C149.185 366.665 179.445 376.325 216.775 376.325C254.105 376.325 284.355 366.665 284.355 354.745V388.385Z" fill="#EDB740"/>
<path d="M113.94 109.15V218.65H88.24V109.15C88.24 108.389 88.5424 107.659 89.0806 107.121C89.6188 106.582 90.3488 106.28 91.11 106.28H111.07C111.447 106.28 111.82 106.354 112.168 106.498C112.517 106.643 112.833 106.854 113.099 107.121C113.366 107.387 113.577 107.703 113.722 108.052C113.866 108.4 113.94 108.773 113.94 109.15Z" fill="#E87187"/>
<path d="M66.2 138.37V218.65H40.5V138.37C40.5 137.609 40.8024 136.879 41.3406 136.341C41.8788 135.802 42.6088 135.5 43.37 135.5H63.33C64.0907 135.502 64.8198 135.804 65.3576 136.342C65.8955 136.88 66.1984 137.609 66.2 138.37Z" fill="#978CAC"/>
<path d="M279.03 269.49L258.26 256.97C257.45 256.482 256.55 256.163 255.613 256.035C254.676 255.906 253.723 255.969 252.812 256.221C251.9 256.473 251.05 256.907 250.312 257.499C249.574 258.09 248.964 258.825 248.52 259.66L189.99 370.68C189.159 372.26 188.98 374.104 189.492 375.814C190.005 377.525 191.167 378.967 192.73 379.83L213.62 391.5C214.427 391.951 215.316 392.236 216.234 392.34C217.153 392.443 218.083 392.363 218.97 392.103C219.857 391.843 220.684 391.41 221.401 390.827C222.119 390.244 222.713 389.525 223.15 388.71L281.56 278.54C282.085 277.562 282.36 276.47 282.36 275.36C282.359 274.177 282.052 273.015 281.468 271.986C280.885 270.958 280.045 270.097 279.03 269.49Z" fill="#5FA8ED"/>
<path d="M448.94 405.87L417.7 379.15L358.23 320.91C354.969 317.717 350.955 315.399 346.56 314.17L336.34 311.32L304.22 292.61C303.17 292.08 295.58 288.58 283.24 290.27C280.204 290.692 277.207 291.361 274.28 292.27L228.74 378.16L245.96 392.38L330.55 471.05L343.46 481.3C346.647 484.018 350.775 485.371 354.952 485.068C359.129 484.765 363.019 482.829 365.78 479.68C367.137 478.128 368.172 476.322 368.825 474.366C369.478 472.411 369.736 470.345 369.585 468.289C369.433 466.233 368.875 464.228 367.942 462.389C367.009 460.551 365.72 458.916 364.15 457.58L371.1 463.52C374.282 466.242 378.409 467.6 382.586 467.299C386.762 466.997 390.652 465.061 393.41 461.91C394.767 460.358 395.802 458.552 396.455 456.596C397.108 454.641 397.367 452.575 397.215 450.519C397.063 448.463 396.505 446.458 395.572 444.619C394.639 442.781 393.35 441.146 391.78 439.81L398.73 445.75C401.912 448.472 406.039 449.83 410.216 449.529C414.392 449.227 418.282 447.291 421.04 444.14C422.387 442.598 423.417 440.806 424.071 438.866C424.725 436.926 424.99 434.876 424.85 432.834C424.711 430.791 424.17 428.796 423.259 426.963C422.348 425.13 421.084 423.494 419.54 422.15C422.43 424.62 425.28 427.07 427.9 429.31C431.098 432.033 435.242 433.384 439.43 433.069C443.619 432.755 447.514 430.8 450.27 427.63L450.53 427.34C451.849 425.832 452.855 424.077 453.489 422.177C454.124 420.277 454.375 418.27 454.227 416.272C454.079 414.275 453.535 412.326 452.628 410.54C451.72 408.755 450.467 407.167 448.94 405.87Z" fill="#FFD8B7"/>
<path d="M495.34 369.86L442.02 257.19C441.262 255.605 439.932 254.366 438.298 253.722C436.663 253.078 434.845 253.077 433.21 253.72L410.6 262.55C409.72 262.887 408.92 263.402 408.249 264.062C407.578 264.723 407.05 265.516 406.7 266.39C406.35 267.264 406.184 268.201 406.213 269.143C406.243 270.084 406.466 271.009 406.87 271.86L460.8 385.14C461.578 386.757 462.951 388.011 464.632 388.639C466.313 389.268 468.172 389.221 469.82 388.51L491.82 379.07C492.668 378.712 493.435 378.185 494.075 377.523C494.715 376.86 495.214 376.076 495.543 375.215C495.872 374.355 496.023 373.437 495.988 372.517C495.954 371.597 495.733 370.693 495.34 369.86Z" fill="#4CA987"/>
<path d="M307.22 430.24C304.144 428.063 300.342 427.171 296.619 427.751C292.897 428.332 289.547 430.34 287.28 433.35C287.238 433.392 287.201 433.439 287.17 433.49L276.34 448.38C276.3 448.431 276.263 448.484 276.23 448.54C274.04 451.634 273.166 455.471 273.8 459.208C274.433 462.946 276.523 466.28 279.61 468.48C282.706 470.666 286.535 471.553 290.276 470.951C294.018 470.35 297.376 468.307 299.63 465.26C299.663 465.204 299.7 465.151 299.74 465.1L310.48 450.33C311.596 448.801 312.397 447.065 312.837 445.224C313.278 443.383 313.348 441.473 313.045 439.604C312.742 437.736 312.071 435.946 311.071 434.338C310.071 432.731 308.762 431.338 307.22 430.24Z" fill="#FFD39F"/>
<path d="M331.74 465.35C331.741 467.312 331.336 469.252 330.55 471.05C330.129 472.01 329.606 472.922 328.99 473.77L323.06 481.92C320.809 484.982 317.447 487.039 313.696 487.649C309.945 488.258 306.104 487.372 303 485.18C299.916 482.982 297.83 479.65 297.199 475.916C296.567 472.182 297.441 468.35 299.63 465.26C299.663 465.204 299.7 465.151 299.74 465.1L305.68 456.93C305.69 456.91 305.71 456.9 305.72 456.88C307.975 453.837 311.333 451.798 315.073 451.2C318.813 450.602 322.638 451.492 325.73 453.68C327.591 455.004 329.108 456.754 330.153 458.785C331.199 460.815 331.743 463.066 331.74 465.35Z" fill="#EFC597"/>
<path d="M288.7 406.8C285.627 404.603 281.814 403.702 278.083 404.289C274.351 404.876 271 406.906 268.75 409.94L252.83 431.82C250.644 434.916 249.77 438.75 250.4 442.487C251.029 446.224 253.11 449.561 256.19 451.77C259.29 453.956 263.123 454.843 266.868 454.239C270.614 453.635 273.974 451.59 276.23 448.54C276.263 448.484 276.3 448.431 276.34 448.38L291.97 426.9C293.083 425.368 293.882 423.632 294.321 421.79C294.759 419.948 294.828 418.037 294.524 416.168C294.22 414.3 293.549 412.51 292.549 410.902C291.55 409.294 290.241 407.9 288.7 406.8Z" fill="#EFC597"/>
<path d="M304.22 292.61C307.668 289.105 311.927 286.505 316.62 285.04L338.43 278.21C343.993 276.464 349.943 276.366 355.56 277.93L378.15 284.22C388.03 286.97 394.98 287.3 405.02 285.16L411.79 282.31L411.83 282.29L457.54 378.3C453.238 386.43 446.21 392.785 437.69 396.25L417.7 379.15L358.23 320.91C354.969 317.717 350.955 315.399 346.56 314.17L336.34 311.32C324.67 311.37 322.02 326.92 322.02 326.92C321.99 327.33 321.95 327.74 321.92 328.14C321.511 332.289 320.174 336.292 318.009 339.855C315.843 343.417 312.905 346.447 309.41 348.72C305.323 351.35 300.644 352.917 295.798 353.279C290.951 353.64 286.092 352.785 281.66 350.79L280.22 350.16L286.87 330.06C288.24 325.94 289.753 321.873 291.41 317.86L298.07 301.78C299.527 298.365 301.613 295.254 304.22 292.61Z" fill="#FFD39F"/>
<path d="M271.28 381.87C268.18 379.677 264.343 378.788 260.595 379.396C256.847 380.004 253.488 382.059 251.24 385.12L229.53 414.97C228.416 416.501 227.616 418.238 227.177 420.08C226.738 421.922 226.669 423.833 226.973 425.702C227.277 427.571 227.949 429.361 228.949 430.969C229.949 432.577 231.258 433.971 232.8 435.07C235.899 437.261 239.734 438.148 243.479 437.54C247.225 436.932 250.583 434.878 252.83 431.82L274.55 401.96C275.663 400.429 276.462 398.693 276.901 396.852C277.339 395.011 277.408 393.101 277.104 391.233C276.8 389.365 276.129 387.576 275.129 385.969C274.13 384.362 272.821 382.969 271.28 381.87Z" fill="#FFD39F"/>
<path d="M228.46 47.61V74.47H191.27V47.61C191.213 45.1318 191.651 42.6671 192.56 40.3608C193.468 38.0544 194.829 35.953 196.561 34.1799C198.294 32.4069 200.363 30.998 202.648 30.0362C204.932 29.0743 207.386 28.5788 209.865 28.5788C212.344 28.5788 214.798 29.0743 217.082 30.0362C219.367 30.998 221.436 32.4069 223.169 34.1799C224.901 35.953 226.262 38.0544 227.17 40.3608C228.079 42.6671 228.517 45.1318 228.46 47.61Z" fill="#B6CAD3"/>
<path d="M149 354.745V393.665C149 399.628 156.758 405.028 169 408.936V370.011C156.758 366.105 149 360.708 149 354.745Z" fill="#BA964D"/>
<path d="M149.365 318.48C144.035 317.53 138.142 316.945 131.972 316.48L48 352V454.15C48 466.07 78.675 475.74 116.005 475.74C153.335 475.74 184.005 466.07 184.005 454.15V337.38C184 329.24 170.215 322.15 149.365 318.48Z" fill="#F9D438"/>
<path d="M78 454.15V339.312L48 352V454.15C48 466.07 78.675 475.74 116.005 475.74C121.154 475.74 126.17 475.55 131.005 475.201C100.8 473.022 78 464.425 78 454.15Z" fill="#DDBF40"/>
<path d="M116.005 439.53C78.675 439.53 48.005 429.86 48.005 417.94V454.15C48.005 466.07 78.68 475.74 116.01 475.74C153.34 475.74 184.01 466.07 184.01 454.15V417.94C184 429.86 153.325 439.53 116.005 439.53Z" fill="#EDB740"/>
<path d="M116.235 358.96C103.835 358.96 95.183 359.205 85.193 357.345L48 352V379.02C48 390.94 78.675 400.6 116.005 400.6C153.335 400.6 184.005 390.94 184.005 379.02V337.38C184 349.3 153.555 358.96 116.235 358.96Z" fill="#EDB740"/>
<path d="M78 454.15V435.823C59.947 431.94 48 425.378 48 417.94V454.15C48 466.07 78.675 475.74 116.005 475.74C121.154 475.74 126.17 475.55 131.005 475.201C100.8 473.022 78 464.425 78 454.15Z" fill="#C4973F"/>
<path d="M78 396.9V356.311L48 352V379.02C48 386.458 59.947 393.016 78 396.9Z" fill="#C4973F"/>
<path d="M132.187 316.451C128.94 326.993 122.819 336.421 114.511 343.678C106.203 350.934 96.037 355.732 85.1541 357.532C72.602 359.628 59.7087 357.703 48.3161 352.032C38.5358 347.179 30.3013 339.697 24.5366 330.425C18.7718 321.153 15.705 310.458 15.6801 299.54C15.6801 267.055 42.3231 240.714 75.1801 240.714C108.037 240.714 134.68 267.055 134.68 299.54C134.683 305.269 133.843 310.967 132.187 316.451Z" fill="#EAB64E"/>
<path d="M78.3161 352.032C67.5513 346.711 58.6806 338.212 52.904 327.684C47.1274 317.157 44.7236 305.109 46.0179 293.171C47.3121 281.233 52.242 269.981 60.1405 260.936C68.039 251.891 78.525 245.49 90.1801 242.6C85.2793 241.343 80.2396 240.708 75.1801 240.711C42.3231 240.711 15.6801 267.052 15.6801 299.537C15.705 310.455 18.7718 321.15 24.5366 330.422C30.3013 339.694 38.5358 347.176 48.3161 352.029C59.7087 357.699 72.602 359.624 85.1541 357.529C86.8641 357.244 88.5461 356.878 90.2041 356.452C86.0952 355.406 82.1099 353.925 78.3161 352.032Z" fill="#C99B4B"/>
<path d="M149 262.79V308.52C155 313.05 166.572 316.055 179 317.994V280.689C161.01 276.812 149 270.243 149 262.79Z" fill="#BC923F"/>
<path d="M149 188.92V226.03C149 233.489 161.01 240.06 179 243.939V206.826C161.01 202.946 149 196.373 149 188.92Z" fill="#BC923F"/>
<path d="M94.565 312.9C94.5238 308.04 92.5565 303.396 89.0948 299.985C85.6331 296.574 80.9597 294.675 76.1 294.706C75.276 294.742 74.4532 294.613 73.6797 294.327C72.9063 294.041 72.1979 293.603 71.5961 293.039C70.9944 292.475 70.5115 291.796 70.1758 291.043C69.8401 290.289 69.6584 289.477 69.6413 288.652C69.6243 287.827 69.7722 287.008 70.0764 286.241C70.3807 285.475 70.8351 284.777 71.413 284.188C71.9909 283.6 72.6805 283.133 73.4415 282.815C74.2024 282.497 75.0192 282.334 75.844 282.336C75.929 282.336 76.014 282.349 76.1 282.349C76.186 282.349 76.26 282.34 76.34 282.336C77.2958 282.36 78.2346 282.595 79.0893 283.023C79.9441 283.452 80.6938 284.064 81.285 284.815C82.27 286.052 83.7032 286.849 85.2731 287.035C86.843 287.221 88.4228 286.779 89.6691 285.807C90.9155 284.834 91.7276 283.409 91.929 281.841C92.1305 280.273 91.705 278.689 90.745 277.433C88.5291 274.583 85.522 272.45 82.1 271.3V270.548C82.1 268.957 81.4678 267.431 80.3426 266.305C79.2174 265.18 77.6913 264.548 76.1 264.548C74.5087 264.548 72.9825 265.18 71.8573 266.305C70.7321 267.431 70.1 268.957 70.1 270.548V271.326C65.9768 272.685 62.4776 275.478 60.2374 279.196C57.9972 282.915 57.1645 287.314 57.8904 291.594C58.6164 295.874 60.8528 299.753 64.1939 302.525C67.535 305.297 71.7592 306.779 76.1 306.703C76.9403 306.659 77.7809 306.786 78.5704 307.078C79.3599 307.369 80.0819 307.818 80.6923 308.397C81.3027 308.976 81.7888 309.674 82.121 310.447C82.4532 311.22 82.6245 312.053 82.6245 312.895C82.6245 313.736 82.4532 314.569 82.121 315.342C81.7888 316.115 81.3027 316.813 80.6923 317.392C80.0819 317.971 79.3599 318.42 78.5704 318.711C77.7809 319.003 76.9403 319.13 76.1 319.086C75.1027 319.095 74.1166 318.875 73.2177 318.443C72.3188 318.011 71.531 317.378 70.915 316.594C69.9269 315.367 68.4958 314.578 66.9307 314.397C65.3657 314.216 63.7923 314.658 62.5503 315.627C61.3082 316.596 60.4973 318.015 60.2926 319.577C60.0878 321.139 60.5057 322.719 61.456 323.976C63.6717 326.826 66.6783 328.959 70.1 330.11C70.1034 331.701 70.7389 333.226 71.8665 334.349C72.9942 335.472 74.5217 336.1 76.113 336.097C77.7043 336.094 79.229 335.458 80.3518 334.33C81.4746 333.203 82.1034 331.675 82.1 330.084C85.7117 328.88 88.8558 326.575 91.0912 323.493C93.3267 320.411 94.5414 316.707 94.565 312.9Z" fill="#6994FE"/>
<path d="M149.179 224.652H16C14.4087 224.652 12.8826 224.02 11.7574 222.895C10.6321 221.769 10 220.243 10 218.652V51.559C10 49.9677 10.6321 48.4416 11.7574 47.3164C12.8826 46.1911 14.4087 45.559 16 45.559C17.5913 45.559 19.1174 46.1911 20.2426 47.3164C21.3679 48.4416 22 49.9677 22 51.559V212.652H149.179C150.77 212.652 152.296 213.284 153.422 214.409C154.547 215.535 155.179 217.061 155.179 218.652C155.179 220.243 154.547 221.769 153.422 222.895C152.296 224.02 150.77 224.652 149.179 224.652Z" fill="#6D7486"/>
<path d="M139.321 16.525C139.254 16.525 139.188 16.519 139.121 16.518L123.457 16.162C122.669 16.1441 121.885 16.2817 121.151 16.5667C120.416 16.8517 119.744 17.2787 119.175 17.8232C118.024 18.9229 117.357 20.4347 117.321 22.026C117.285 23.6173 117.882 25.1578 118.982 26.3085C120.082 27.4592 121.594 28.1259 123.185 28.162L126.491 28.237L32.758 112.337C32.1635 112.861 31.6787 113.497 31.3316 114.21C30.9844 114.922 30.7818 115.696 30.7354 116.487C30.689 117.278 30.7997 118.07 31.0612 118.818C31.3227 119.566 31.7298 120.255 32.2589 120.845C32.7881 121.435 33.4288 121.914 34.1441 122.255C34.8594 122.596 35.6352 122.791 36.4266 122.831C37.218 122.87 38.0094 122.753 38.755 122.485C39.5007 122.216 40.1859 121.803 40.771 121.269L134.714 36.984L134.573 39.264C134.475 40.8522 135.013 42.4142 136.066 43.6064C137.12 44.7986 138.605 45.5232 140.193 45.621C140.319 45.629 140.444 45.633 140.568 45.633C142.094 45.6316 143.563 45.0484 144.675 44.0022C145.786 42.9561 146.457 41.5256 146.551 40.002L147.437 25.613L147.443 25.504C147.534 23.2419 146.735 21.0342 145.216 19.3553C143.698 17.6763 141.581 16.6601 139.321 16.525Z" fill="#6994FE"/>
<path d="M421.085 72.766H315.939C314.348 72.766 312.822 72.1339 311.696 71.0086C310.571 69.8834 309.939 68.3573 309.939 66.766C309.939 65.1747 310.571 63.6486 311.696 62.5234C312.822 61.3981 314.348 60.766 315.939 60.766H421.085C422.676 60.766 424.202 61.3981 425.328 62.5234C426.453 63.6486 427.085 65.1747 427.085 66.766C427.085 68.3573 426.453 69.8834 425.328 71.0086C424.202 72.1339 422.676 72.766 421.085 72.766Z" fill="#8FA3AA"/>
<path d="M421.085 110.843H315.939C314.348 110.843 312.822 110.211 311.696 109.086C310.571 107.96 309.939 106.434 309.939 104.843C309.939 103.252 310.571 101.726 311.696 100.6C312.822 99.4751 314.348 98.843 315.939 98.843H421.085C422.676 98.843 424.202 99.4751 425.328 100.6C426.453 101.726 427.085 103.252 427.085 104.843C427.085 106.434 426.453 107.96 425.328 109.086C424.202 110.211 422.676 110.843 421.085 110.843Z" fill="#8FA3AA"/>
<path d="M261.68 149.9C260.089 149.909 258.559 149.286 257.427 148.167C256.296 147.048 255.655 145.526 255.645 143.934C255.636 142.343 256.26 140.813 257.378 139.682C258.497 138.55 260.02 137.909 261.611 137.9L425.588 135.951H425.661C427.252 135.942 428.782 136.565 429.914 137.684C431.046 138.802 431.687 140.325 431.696 141.916C431.705 143.507 431.082 145.037 429.963 146.169C428.845 147.301 427.322 147.942 425.731 147.951L261.753 149.9H261.68Z" fill="#8FA3AA"/>
<path d="M425.613 187H305.527C303.936 187 302.41 186.368 301.284 185.243C300.159 184.117 299.527 182.591 299.527 181C299.527 179.409 300.159 177.883 301.284 176.757C302.41 175.632 303.936 175 305.527 175H425.613C427.204 175 428.73 175.632 429.856 176.757C430.981 177.883 431.613 179.409 431.613 181C431.613 182.591 430.981 184.117 429.856 185.243C428.73 186.368 427.204 187 425.613 187Z" fill="#8FA3AA"/>
<path d="M425.613 225.075H311.373C309.782 225.075 308.256 224.443 307.13 223.318C306.005 222.192 305.373 220.666 305.373 219.075C305.373 217.484 306.005 215.958 307.13 214.832C308.256 213.707 309.782 213.075 311.373 213.075H425.613C427.204 213.075 428.73 213.707 429.856 214.832C430.981 215.958 431.613 217.484 431.613 219.075C431.613 220.666 430.981 222.192 429.856 223.318C428.73 224.443 427.204 225.075 425.613 225.075Z" fill="#8FA3AA"/>
<path d="M385.665 263.153H311.373C309.782 263.153 308.256 262.521 307.13 261.396C306.005 260.27 305.373 258.744 305.373 257.153C305.373 255.562 306.005 254.036 307.13 252.91C308.256 251.785 309.782 251.153 311.373 251.153H385.665C387.256 251.153 388.782 251.785 389.908 252.91C391.033 254.036 391.665 255.562 391.665 257.153C391.665 258.744 391.033 260.27 389.908 261.396C388.782 262.521 387.256 263.153 385.665 263.153Z" fill="#8FA3AA"/>
<path d="M294.61 98.424C294.568 93.5646 292.6 88.9203 289.138 85.5099C285.677 82.0995 281.003 80.2014 276.144 80.232C275.318 80.2671 274.493 80.1362 273.718 79.8471C272.943 79.558 272.234 79.1166 271.633 78.5489C271.031 77.9813 270.55 77.2988 270.216 76.5419C269.883 75.785 269.705 74.969 269.692 74.1421C269.68 73.3152 269.833 72.4941 270.143 71.7274C270.453 70.9607 270.913 70.2638 271.497 69.678C272.081 69.0923 272.776 68.6294 273.542 68.3168C274.307 68.0042 275.128 67.8482 275.955 67.858C276.069 67.864 276.181 67.875 276.296 67.875C276.353 67.875 276.409 67.868 276.466 67.867C277.408 67.902 278.33 68.1415 279.17 68.5689C280.01 68.9963 280.747 69.6013 281.329 70.342C281.814 70.9632 282.416 71.4827 283.102 71.8711C283.787 72.2594 284.543 72.509 285.325 72.6054C286.107 72.7018 286.9 72.6433 287.659 72.4331C288.419 72.223 289.129 71.8653 289.75 71.3805C290.372 70.8957 290.891 70.2933 291.28 69.6078C291.668 68.9222 291.917 68.1668 292.014 67.3848C292.11 66.6028 292.052 65.8095 291.842 65.0501C291.631 64.2907 291.274 63.5801 290.789 62.959C288.606 60.1528 285.656 58.0401 282.296 56.877V56.077C282.296 54.4857 281.664 52.9596 280.539 51.8344C279.413 50.7091 277.887 50.077 276.296 50.077C274.705 50.077 273.179 50.7091 272.053 51.8344C270.928 52.9596 270.296 54.4857 270.296 56.077V56.8C266.148 58.128 262.616 60.9032 260.344 64.6192C258.073 68.3352 257.213 72.7441 257.922 77.0413C258.632 81.3384 260.862 85.2373 264.208 88.0263C267.553 90.8152 271.789 92.3083 276.144 92.233C276.984 92.1889 277.825 92.3164 278.614 92.6077C279.404 92.899 280.126 93.3479 280.736 93.9272C281.347 94.5064 281.833 95.2039 282.165 95.9771C282.497 96.7503 282.669 97.583 282.669 98.4245C282.669 99.266 282.497 100.099 282.165 100.872C281.833 101.645 281.347 102.343 280.736 102.922C280.126 103.501 279.404 103.95 278.614 104.241C277.825 104.533 276.984 104.66 276.144 104.616C275.147 104.625 274.161 104.405 273.262 103.973C272.363 103.541 271.576 102.908 270.96 102.124C270.484 101.479 269.884 100.936 269.195 100.527C268.506 100.117 267.742 99.8503 266.948 99.7413C266.154 99.6322 265.346 99.6833 264.572 99.8915C263.798 100.1 263.074 100.461 262.442 100.954C261.81 101.447 261.283 102.061 260.892 102.761C260.502 103.461 260.255 104.231 260.167 105.028C260.08 105.825 260.152 106.631 260.381 107.399C260.61 108.167 260.99 108.881 261.5 109.5C263.751 112.393 266.815 114.545 270.3 115.681C270.311 117.272 270.953 118.794 272.086 119.912C272.646 120.465 273.311 120.903 274.041 121.2C274.771 121.496 275.552 121.646 276.34 121.641C277.128 121.636 277.907 121.475 278.633 121.169C279.359 120.863 280.017 120.416 280.571 119.855C281.124 119.294 281.562 118.63 281.859 117.9C282.155 117.17 282.305 116.389 282.3 115.601V115.551C285.874 114.325 288.979 112.017 291.184 108.949C293.39 105.881 294.587 102.203 294.61 98.424Z" fill="#4CA987"/>
<path d="M206.424 102.953C204.833 102.953 203.307 102.321 202.181 101.196C201.056 100.07 200.424 98.5443 200.424 96.953V93.553C200.424 91.9617 201.056 90.4356 202.181 89.3104C203.307 88.1851 204.833 87.553 206.424 87.553C208.015 87.553 209.541 88.1851 210.667 89.3104C211.792 90.4356 212.424 91.9617 212.424 93.553V96.953C212.424 98.5443 211.792 100.07 210.667 101.196C209.541 102.321 208.015 102.953 206.424 102.953Z" fill="#D4E1F4"/>
<path d="M206.424 153.882C204.833 153.882 203.307 153.25 202.181 152.125C201.056 150.999 200.424 149.473 200.424 147.882V114.925C200.424 113.334 201.056 111.808 202.181 110.682C203.307 109.557 204.833 108.925 206.424 108.925C208.015 108.925 209.541 109.557 210.667 110.682C211.792 111.808 212.424 113.334 212.424 114.925V147.882C212.424 149.473 211.792 150.999 210.667 152.125C209.541 153.25 208.015 153.882 206.424 153.882Z" fill="#D4E1F4"/>
</svg>
