<svg width="512" height="512" viewBox="0 0 512 512" fill="none" xmlns="http://www.w3.org/2000/svg">
<path d="M194.29 292.85L191.46 240.53L139.84 292.14L202.07 354.36L228.94 327.49L194.29 292.85Z" fill="#FB6771"/>
<path d="M299.16 112.04C296.017 108.897 292.286 106.403 288.179 104.702C284.072 103.001 279.67 102.125 275.225 102.125C270.78 102.125 266.378 103.001 262.271 104.702C258.165 106.403 254.433 108.897 251.29 112.04L211.19 152.14L191.43 144.61C185.182 142.232 178.437 141.458 171.813 142.36C165.188 143.261 158.896 145.809 153.51 149.77L89.47 196.84C82.1692 202.204 76.9061 209.888 74.5425 218.634C72.1789 227.38 72.855 236.669 76.46 244.98L88.93 273.75L65.6 297.09L162.47 393.96L202.07 354.36L139.84 292.14L224.7 207.29C230.27 201.717 236.884 197.295 244.163 194.279C251.443 191.263 259.245 189.71 267.125 189.71C275.005 189.71 282.807 191.263 290.087 194.279C297.366 197.295 303.98 201.717 309.55 207.29L329.35 227.08L371.77 184.66L299.16 112.04Z" fill="#43A2FF"/>
<path d="M499.5 58.7V98.7H402.21C391.602 98.7037 381.431 102.919 373.93 110.42L337.15 147.19L335.73 148.61L307.45 120.33L308.87 118.91L357.36 70.42C364.863 62.9174 375.039 58.7017 385.65 58.7H499.5Z" fill="#D4E1F4"/>
<path d="M68.99 368.36L12.5 424.85L40.95 453.3L97.47 396.78L68.99 368.36Z" fill="#B0B5CA"/>
<path d="M88.23 319.72L68.51 339.43C66.6411 341.298 65.1585 343.515 64.147 345.956C63.1355 348.397 62.6148 351.013 62.6148 353.655C62.6148 356.297 63.1355 358.913 64.147 361.354C65.1585 363.795 66.6411 366.012 68.51 367.88L97.47 396.78C101.298 400.204 106.292 402.032 111.425 401.887C116.559 401.741 121.442 399.635 125.07 396L144.79 376.28L88.23 319.72Z" fill="#6D7486"/>
<path d="M328.87 138.91L377.36 90.42C384.863 82.9174 395.039 78.7017 405.65 78.7H499.5V58.7H385.65C375.039 58.7017 364.863 62.9174 357.36 70.42L308.87 118.91L307.45 120.33L319.157 132.037L320.18 133.06L335.73 148.61L327.45 140.33L328.87 138.91Z" fill="#B6C9E0"/>
<path d="M96.46 264.98C92.855 256.669 92.1789 247.38 94.5425 238.634C96.9061 229.888 102.169 222.204 109.47 216.84L173.51 169.77C178.896 165.809 185.188 163.261 191.813 162.36C198.437 161.458 205.182 162.232 211.43 164.61L231.19 172.14L271.29 132.04C277.628 125.702 286.221 122.136 295.184 122.126C304.147 122.115 312.748 125.661 319.101 131.984L299.16 112.04C296.017 108.897 292.286 106.403 288.179 104.702C284.072 103.001 279.67 102.125 275.225 102.125C270.78 102.125 266.378 103.001 262.271 104.702C258.165 106.403 254.433 108.897 251.29 112.04L211.19 152.14L191.43 144.61C185.182 142.232 178.437 141.458 171.813 142.36C165.188 143.261 158.896 145.809 153.51 149.77L89.47 196.84C82.1692 202.204 76.9061 209.888 74.5425 218.634C72.1789 227.38 72.855 236.669 76.46 244.98L88.93 273.75L65.6 297.09L85.6 317.09L108.93 293.75L96.46 264.98Z" fill="#3090FC"/>
<path d="M97.449 396.8L88.51 387.88C88.374 387.745 88.26 387.597 88.129 387.459L68.99 368.36L12.5 424.85L32.5 444.85L88.99 388.36L97.449 396.8Z" fill="#CCD3DF"/>
<path d="M88.51 359.43L108.23 339.72L88.23 319.72L68.51 339.43C66.6411 341.298 65.1585 343.515 64.147 345.956C63.1355 348.397 62.6148 351.013 62.6148 353.655C62.6148 356.297 63.1355 358.913 64.147 361.354C65.1585 363.795 66.6411 366.012 68.51 367.88L88.128 387.457C84.5297 383.655 82.5564 378.6 82.6277 373.366C82.699 368.132 84.8094 363.132 88.51 359.43Z" fill="#B0B5CA"/>
<path d="M192.999 268.985L191.46 240.53L139.84 292.14L202.07 354.36L217.069 339.361L169.84 292.14L192.999 268.985Z" fill="#E75163"/>
<path d="M123.607 252.042C122.819 252.043 122.039 251.888 121.311 251.587C120.583 251.285 119.922 250.843 119.365 250.285L107.195 238.115C106.638 237.558 106.196 236.896 105.894 236.168C105.593 235.441 105.437 234.66 105.437 233.872C105.437 233.084 105.592 232.304 105.894 231.576C106.195 230.848 106.637 230.187 107.195 229.63C108.32 228.504 109.846 227.872 111.437 227.872C112.225 227.872 113.005 228.027 113.733 228.328C114.461 228.63 115.123 229.072 115.68 229.629L127.85 241.799C128.689 242.638 129.261 243.707 129.492 244.871C129.724 246.035 129.605 247.242 129.151 248.338C128.697 249.435 127.928 250.372 126.941 251.031C125.954 251.69 124.794 252.042 123.607 252.042Z" fill="#298CE5"/>
<path d="M143.407 232.243C142.619 232.244 141.839 232.089 141.111 231.788C140.383 231.486 139.722 231.044 139.165 230.486L127 218.316C125.9 217.186 125.289 215.668 125.3 214.091C125.31 212.514 125.942 211.004 127.057 209.889C128.172 208.773 129.681 208.142 131.259 208.131C132.836 208.12 134.354 208.731 135.484 209.831L147.649 222C148.488 222.839 149.06 223.908 149.291 225.072C149.523 226.236 149.404 227.442 148.95 228.539C148.496 229.635 147.727 230.572 146.74 231.232C145.754 231.891 144.594 232.243 143.407 232.243Z" fill="#298CE5"/>
<path d="M163.206 212.444C162.418 212.445 161.637 212.29 160.909 211.989C160.181 211.687 159.52 211.245 158.963 210.687L146.793 198.517C145.668 197.392 145.035 195.865 145.035 194.274C145.035 192.683 145.668 191.156 146.793 190.031C147.918 188.906 149.445 188.273 151.036 188.273C152.627 188.273 154.154 188.906 155.279 190.031L167.449 202.202C168.288 203.041 168.859 204.11 169.091 205.274C169.322 206.438 169.203 207.644 168.749 208.74C168.295 209.837 167.526 210.774 166.539 211.433C165.553 212.092 164.393 212.444 163.206 212.444Z" fill="#298CE5"/>
<path d="M226.749 173.692C225.562 173.692 224.403 173.34 223.416 172.68C222.43 172.021 221.661 171.084 221.207 169.988C220.753 168.892 220.634 167.686 220.865 166.522C221.097 165.358 221.668 164.289 222.507 163.45L250.354 135.6C251.484 134.5 253.002 133.889 254.579 133.9C256.157 133.911 257.666 134.542 258.781 135.658C259.896 136.773 260.528 138.283 260.538 139.86C260.549 141.437 259.938 142.955 258.838 144.085L230.991 171.932C230.435 172.49 229.774 172.933 229.046 173.235C228.318 173.537 227.537 173.693 226.749 173.692Z" fill="#F4F8FC"/>
<path d="M266.843 133.6C265.656 133.6 264.496 133.248 263.51 132.589C262.523 131.929 261.754 130.992 261.3 129.896C260.846 128.799 260.727 127.593 260.959 126.429C261.19 125.265 261.762 124.196 262.601 123.357C264.255 121.694 266.221 120.376 268.388 119.479C270.554 118.581 272.877 118.123 275.222 118.129C276.813 118.129 278.339 118.761 279.465 119.886C280.59 121.012 281.222 122.538 281.222 124.129C281.222 125.72 280.59 127.246 279.465 128.372C278.339 129.497 276.813 130.129 275.222 130.129C274.453 130.123 273.69 130.271 272.979 130.566C272.269 130.86 271.624 131.295 271.085 131.843C270.528 132.401 269.867 132.843 269.139 133.145C268.411 133.446 267.631 133.601 266.843 133.6Z" fill="#F4F8FC"/>
</svg>
