<?xml version="1.0" encoding="utf-8"?>
<!-- Generator: Adobe Illustrator 25.0.1, SVG Export Plug-In . SVG Version: 6.00 Build 0)  -->
<svg version="1.0" id="katman_1" xmlns="http://www.w3.org/2000/svg" xmlns:xlink="http://www.w3.org/1999/xlink" x="0px" y="0px"
	 viewBox="0 0 2856 1763" style="enable-background:new 0 0 2856 1763;" xml:space="preserve">
<style type="text/css">
	.st0{fill-rule:evenodd;clip-rule:evenodd;}
	.st1{fill:url(#SVGID_1_);}
	.st2{fill:url(#SVGID_2_);}
	.st3{fill:url(#SVGID_3_);}
</style>
<path d="M1075.3,901h82.5c11.6,0,21,9.5,21,21.1s-9.4,21.1-21,21.1h-99.5c-1.6,0-3.1,0.6-4.2,1.6l-30,25.9c-4.6,4-1.8,11.5,4.2,11.5
	h124.5c0,0,0.1,0,0.1-0.1c0-0.1,0.1-0.1,0.1-0.1c1.6,0.1,3.1,0.2,4.8,0.2c33,0,59.8-26.9,59.8-60.1c0-31.5-24.1-57.4-54.9-59.9
	c0,0-0.1,0-0.1-0.1c0-0.1,0-0.1-0.1-0.1h-88.8c-11.6,0-21-9.5-21-21.1c0-11.7,9.4-21.1,21-21.1h99.3c1.6,0,3.2-0.6,4.4-1.7
	l27.9-25.9c4.4-4,1.5-11.4-4.4-11.4h-125.5c0,0,0,0,0,0c0,0,0,0,0,0c-0.5,0-1.1,0-1.6,0c-33,0-59.8,26.9-59.8,60.1
	c0,33.2,26.8,60.1,59.8,60.1C1074.3,901,1074.8,901,1075.3,901C1075.3,901,1075.3,901,1075.3,901C1075.3,901,1075.3,901,1075.3,901z
	"/>
<path d="M1555.6,780.7c-3.6,0-6.5,2.9-6.5,6.6v188.4c0,3.6,2.9,6.6,6.5,6.6h151c1.8,0,3.5-0.8,4.8-2.1l18.9-20.3
	c3.9-4.2,1-11-4.8-11h-131.8c-3.6,0-6.5-2.9-6.5-6.6v-155c0-3.6-2.9-6.6-6.5-6.6H1555.6z"/>
<path class="st0" d="M1313.8,780.7C1313.8,780.7,1313.8,780.7,1313.8,780.7C1313.8,780.8,1313.7,780.8,1313.8,780.7
	c-19.3,0.9-34.8,16.4-35.7,35.7c0,0,0,0,0,0c0,0,0,0,0,0c0,0,0,0,0,0v126.7c0,0,0,0,0,0c0,0,0,0,0,0c0,0.5,0,1.1,0,1.6
	c0,20.1,15.8,36.5,35.7,37.3c0,0,0,0,0,0v0v0c0,0,0,0,0,0h137c0,0,0,0,0,0l0,0v0l0,0c19.8-0.9,35.7-17.3,35.7-37.3
	c0-0.5,0-1.1,0-1.6c0,0,0,0,0,0c0,0,0,0,0,0V816.5c0,0,0,0,0,0c0,0,0,0,0,0c-0.8-19.3-16.3-34.9-35.6-35.7c0,0,0,0,0,0c0,0,0,0,0,0
	H1313.8z M1339.3,816.5L1339.3,816.5L1339.3,816.5C1339.3,816.5,1339.3,816.5,1339.3,816.5c-12.1,0.5-21.8,10.3-22.3,22.5
	c0,0,0,0,0,0c0,0,0,0,0,0v79.7c0,0,0,0,0,0c0,0,0,0,0,0c0,0.3,0,0.7,0,1c0,12.6,9.9,23,22.3,23.5c0,0,0,0,0,0v0l0,0v0h85.9v0l0,0v0
	c0,0,0,0,0,0c12.4-0.5,22.3-10.9,22.3-23.5c0-0.3,0-0.7,0-1v0v0l0,0c0,0,0,0,0,0V839c0,0,0,0,0,0c0,0,0,0,0,0
	c-0.5-12.2-10.2-21.9-22.3-22.5c0,0,0,0,0,0v0l0,0v0H1339.3z"/>
<path class="st0" d="M1949.8,975.7c0,3.6,2.9,6.6,6.5,6.6h25.6c3.6,0,6.5-2.9,6.5-6.6V819.8c0,0,0,0,0,0v0l0,0c0,0,0,0,0,0
	c0-0.5,0-1.1,0-1.6c0-20.1-15.7-36.5-35.3-37.3c0,0,0,0,0,0c0,0,0,0,0,0h-131.5c0,0,0,0,0,0c0,0,0,0,0,0c-0.5,0-1.1,0-1.6,0
	c-20.4,0-36.9,16.7-36.9,37.4c0,0.5,0,1.1,0,1.6c0,0,0,0,0,0s0,0,0,0v155.9c0,3.6,2.9,6.6,6.5,6.6h25.6c3.6,0,6.5-2.9,6.5-6.6v-64.9
	c0-3.6,2.9-6.6,6.5-6.6h115.4c3.6,0,6.5,2.9,6.5,6.6V975.7z M1821.4,868.4V836c0-12.6,10.1-22.8,22.5-22.8h83.4
	c12.4,0,22.5,10.2,22.5,22.8v32.4c0,3.6-2.9,6.6-6.5,6.6h-115.4C1824.3,875,1821.4,872.1,1821.4,868.4z"/>
<path class="st0" d="M2490.3,982.3c-3.6,0-6.5-2.9-6.5-6.6v-64.9c0-3.6-2.9-6.6-6.5-6.6h-116.7c-3.6,0-6.5,2.9-6.5,6.6v64.9
	c0,3.6-2.9,6.6-6.5,6.6h-25.8c-3.6,0-6.5-2.9-6.5-6.6V819.8v0l0,0c0,0,0,0,0,0c0,0,0,0,0,0c0-0.5,0-1.1,0-1.6
	c0-20.6,16.7-37.4,37.3-37.4c0.5,0,1.1,0,1.6,0c0,0,0,0,0,0c0,0,0,0,0,0h133c0,0,0,0,0,0c0,0,0,0,0,0c19.8,0.9,35.7,17.3,35.7,37.3
	c0,0.5,0,1.1,0,1.6c0,0,0,0,0,0c0,0,0,0,0,0c0,0,0,0,0,0v155.9c0,3.6-2.9,6.6-6.5,6.6H2490.3z M2354,836v32.4c0,3.6,2.9,6.6,6.5,6.6
	h116.7c3.6,0,6.5-2.9,6.5-6.6V836c0-12.6-10.2-22.8-22.7-22.8h-84.3C2364.2,813.2,2354,823.4,2354,836z"/>
<path d="M2084.7,780.7c1.9,0,3.7,0.8,4.9,2.3l114.8,136.9c3.9,4.6,11.4,1.8,11.4-4.3V787.3c0-3.6,2.9-6.6,6.5-6.6h25.6
	c3.6,0,6.5,2.9,6.5,6.6v188.4c0,3.6-2.9,6.6-6.5,6.6h-31.8c-0.1,0-0.2-0.1-0.2-0.2c0-0.1,0-0.1-0.1-0.2l-116.8-135.9
	c-3.9-4.6-11.4-1.7-11.4,4.3v125.5c0,3.6-2.9,6.6-6.5,6.6h-25.8c-3.6,0-6.5-2.9-6.5-6.6V787.3c0-3.6,2.9-6.6,6.5-6.6H2084.7z"/>
<linearGradient id="SVGID_1_" gradientUnits="userSpaceOnUse" x1="807.3331" y1="1136.1171" x2="519.1071" y2="584.0489" gradientTransform="matrix(1 0 0 -1 0 1764)">
	<stop  offset="0" style="stop-color:#00FFA3"/>
	<stop  offset="1" style="stop-color:#DC1FFF"/>
</linearGradient>
<path class="st1" d="M418.6,989.2c3.2-3.2,7.5-5,12-5h416.5c7.6,0,11.4,9.2,6,14.5l-82.3,82.2c-3.2,3.2-7.5,5-12,5H342.4
	c-7.6,0-11.4-9.2-6-14.5L418.6,989.2z"/>
<linearGradient id="SVGID_2_" gradientUnits="userSpaceOnUse" x1="681.3051" y1="1201.9143" x2="393.0791" y2="649.8461" gradientTransform="matrix(1 0 0 -1 0 1764)">
	<stop  offset="0" style="stop-color:#00FFA3"/>
	<stop  offset="1" style="stop-color:#DC1FFF"/>
</linearGradient>
<path class="st2" d="M418.6,682c3.2-3.2,7.5-5,12-5h416.5c7.6,0,11.4,9.2,6,14.5l-82.3,82.2c-3.2,3.2-7.5,5-12,5H342.4
	c-7.6,0-11.4-9.2-6-14.5L418.6,682z"/>
<linearGradient id="SVGID_3_" gradientUnits="userSpaceOnUse" x1="743.9181" y1="1169.2251" x2="455.6921" y2="617.1569" gradientTransform="matrix(1 0 0 -1 0 1764)">
	<stop  offset="0" style="stop-color:#00FFA3"/>
	<stop  offset="1" style="stop-color:#DC1FFF"/>
</linearGradient>
<path class="st3" d="M770.8,834.6c-3.2-3.2-7.5-5-12-5H342.4c-7.6,0-11.4,9.2-6,14.5l82.3,82.2c3.2,3.2,7.5,5,12,5h416.5
	c7.6,0,11.4-9.2,6-14.5L770.8,834.6z"/>
</svg>
