<svg width="512" height="512" viewBox="0 0 512 512" fill="none" xmlns="http://www.w3.org/2000/svg">
<path d="M482.98 321.11L307.42 193.09H306.83V377.08H499.41V353.43C499.409 347.13 497.921 340.919 495.066 335.302C492.211 329.686 488.07 324.823 482.98 321.11Z" fill="#75967A"/>
<path d="M204.58 193.09L29.02 321.11C23.9303 324.823 19.7894 329.686 16.9343 335.302C14.0793 340.919 12.5908 347.13 12.59 353.43V377.08H205.17V193.09H204.58Z" fill="#75967A"/>
<path d="M277.53 62.8499L256 27.7L234.47 62.8499C215.31 94.1339 205.17 130.105 205.17 166.79V484.3H306.83V166.79C306.83 130.105 296.69 94.1339 277.53 62.8499Z" fill="#88AA8C"/>
<path d="M234.47 62.8499C215.31 94.1339 205.17 130.105 205.17 166.79V484.3H235.17V166.79C235.17 130.105 245.31 94.1339 264.47 62.8499L271 52.1889L256 27.7L234.47 62.8499Z" fill="#6F8E71"/>
<path d="M307.42 417.53H306.83V484.3H307.42H373.09V458.53L307.42 417.53Z" fill="#75967A"/>
<path d="M204.58 417.53L138.91 458.53V484.3H204.58H205.17V417.53H204.58Z" fill="#75967A"/>
<path d="M204.58 193.09L29.02 321.11C23.9303 324.823 19.7894 329.686 16.9343 335.302C14.0793 340.919 12.5908 347.13 12.59 353.43V377.08H205.17V193.09H204.58Z" fill="#75967A"/>
<path d="M378.09 405.64H427.59V434.43H378.09V405.64Z" fill="#6A6930"/>
<path d="M423.99 354.64C423.988 339.376 419.77 324.408 411.8 311.39L402.84 296.76L393.88 311.39C385.91 324.408 381.692 339.376 381.69 354.64V405.64H423.99" fill="#7C7E38"/>
<path d="M84.41 405.64H133.91V434.43H84.41V405.64Z" fill="#6A6930"/>
<path d="M118.12 311.39L109.16 296.76L100.2 311.39C92.2301 324.408 88.0116 339.376 88.01 354.64V405.64H130.31V354.64C130.308 339.376 126.09 324.408 118.12 311.39Z" fill="#7C7E38"/>
<path d="M284 359.3V429.3H306.83V417.53V359.3H284Z" fill="#6A6930"/>
<path d="M256 359.3H284V429.3H256V359.3Z" fill="#7C7E38"/>
<path d="M228 359.3H256V429.3H228V359.3Z" fill="#6A6930"/>
<path d="M205.17 359.3V417.53V429.3H228V359.3H205.17Z" fill="#7C7E38"/>
<path d="M288.65 158.18V213.49C279.747 205.305 268.094 200.762 256 200.762C243.906 200.762 232.253 205.305 223.35 213.49V158.18C232.255 149.999 243.907 145.46 256 145.46C268.093 145.46 279.744 149.999 288.65 158.18Z" fill="#D4E1F4"/>
<path d="M204.58 193.09L29.02 321.11C23.9303 324.823 19.7894 329.686 16.9343 335.302C14.0793 340.919 12.5908 347.13 12.59 353.43V377.08H42.59V353.43C42.5908 347.13 44.0793 340.919 46.9343 335.302C49.7894 329.686 53.9303 324.823 59.02 321.11L205.17 214.536V193.09H204.58Z" fill="#8CAF90"/>
<path d="M223.35 213.49C231.575 205.914 242.184 201.442 253.35 200.843V145.543C242.185 146.141 231.577 150.61 223.35 158.182V213.49Z" fill="#B6C7DD"/>
<path d="M230.17 249C228.579 249 227.053 248.368 225.927 247.243C224.802 246.117 224.17 244.591 224.17 243V236.124C224.17 234.533 224.802 233.007 225.927 231.881C227.053 230.756 228.579 230.124 230.17 230.124C231.761 230.124 233.287 230.756 234.413 231.881C235.538 233.007 236.17 234.533 236.17 236.124V243C236.17 244.591 235.538 246.117 234.413 247.243C233.287 248.368 231.761 249 230.17 249Z" fill="#F4F8FC"/>
<path d="M230.17 338.473C228.579 338.473 227.053 337.841 225.927 336.716C224.802 335.59 224.17 334.064 224.17 332.473V262.194C224.17 260.603 224.802 259.077 225.927 257.951C227.053 256.826 228.579 256.194 230.17 256.194C231.761 256.194 233.287 256.826 234.413 257.951C235.538 259.077 236.17 260.603 236.17 262.194V332.473C236.17 334.064 235.538 335.59 234.413 336.716C233.287 337.841 231.761 338.473 230.17 338.473Z" fill="#F4F8FC"/>
</svg>
