<svg width="512" height="512" viewBox="0 0 512 512" fill="none" xmlns="http://www.w3.org/2000/svg">
<path d="M492 404.4V411.4C492 419.356 488.839 426.987 483.213 432.613C477.587 438.239 469.956 441.4 462 441.4H50C42.0435 441.4 34.4129 438.239 28.7868 432.613C23.1607 426.987 20 419.356 20 411.4V404.43H188.49L195.85 382.18C196.117 381.383 196.627 380.69 197.309 380.198C197.99 379.706 198.809 379.441 199.65 379.44H312.35C313.19 379.439 314.008 379.704 314.689 380.196C315.37 380.688 315.877 381.382 316.14 382.18L323.51 404.43L492 404.4Z" fill="#5B606D"/>
<path d="M50 411.4V404H20V411.4C20.0075 415.319 20.7916 419.197 22.3069 422.811C23.8221 426.425 26.0386 429.703 28.8281 432.455C31.6176 435.208 34.9249 437.38 38.5589 438.847C42.1929 440.313 46.0815 441.045 50 441H80C76.0815 441.045 72.1929 440.313 68.5589 438.847C64.9249 437.38 61.6176 435.208 58.8281 432.455C56.0386 429.703 53.8221 426.425 52.3069 422.811C50.7916 419.197 50.0075 415.319 50 411.4Z" fill="#4A4E56"/>
<path d="M428.08 71H83.92C80.0057 70.9565 76.1217 71.69 72.4929 73.1582C68.8641 74.6263 65.5626 76.7999 62.7798 79.553C59.997 82.3061 57.788 85.5839 56.2809 89.1967C54.7738 92.8095 53.9986 96.6855 54 100.6L53.5 340H458.49L458 100.6C458.001 96.6855 457.226 92.8095 455.719 89.1967C454.212 85.5839 452.003 82.3061 449.22 79.553C446.437 76.7999 443.136 74.6263 439.507 73.1582C435.878 71.69 431.994 70.9565 428.08 71Z" fill="#5B606D"/>
<path d="M113.92 71H83.92C80.0057 70.9565 76.1217 71.69 72.4929 73.1582C68.8641 74.6263 65.5626 76.7999 62.7798 79.553C59.997 82.3061 57.788 85.5839 56.2809 89.1967C54.7738 92.8095 53.9986 96.6855 54 100.6L53.5 340H83.5L84 100.6C83.9986 96.6855 84.7738 92.8095 86.2809 89.1967C87.788 85.5839 89.997 82.3061 92.7798 79.553C95.5626 76.7999 98.8641 74.6263 102.493 73.1582C106.122 71.69 110.006 70.9565 113.92 71Z" fill="#4A4E56"/>
<path d="M424.23 102.4V307.26H86.77V102.4H424.23Z" fill="#F4D9C4"/>
<path d="M458.485 340H53.5L20 405H188.49L195.85 382.745C196.116 381.947 196.626 381.253 197.308 380.761C197.99 380.268 198.809 380.002 199.65 380H312.35C313.209 380.046 314.033 380.355 314.711 380.884C315.388 381.413 315.887 382.138 316.14 382.96L323.51 405.32L492 405.49L458.485 340Z" fill="#7D8595"/>
<path d="M53.495 340L20 405H50L83.495 340H53.495Z" fill="#676E7A"/>
<path d="M70.067 370.214H65.772C64.1807 370.214 62.6546 369.582 61.5294 368.457C60.4041 367.331 59.772 365.805 59.772 364.214C59.772 362.623 60.4041 361.097 61.5294 359.971C62.6546 358.846 64.1807 358.214 65.772 358.214H70.067C71.6583 358.214 73.1844 358.846 74.3096 359.971C75.4349 361.097 76.067 362.623 76.067 364.214C76.067 365.805 75.4349 367.331 74.3096 368.457C73.1844 369.582 71.6583 370.214 70.067 370.214Z" fill="#F4F8FC"/>
<path d="M163.067 370.214H91.067C89.4757 370.214 87.9496 369.582 86.8244 368.457C85.6992 367.331 85.067 365.805 85.067 364.214C85.067 362.623 85.6992 361.097 86.8244 359.971C87.9496 358.846 89.4757 358.214 91.067 358.214H163.067C164.658 358.214 166.184 358.846 167.31 359.971C168.435 361.097 169.067 362.623 169.067 364.214C169.067 365.805 168.435 367.331 167.31 368.457C166.184 369.582 164.658 370.214 163.067 370.214Z" fill="#F4F8FC"/>
<path d="M323.385 202.135H373.37V214.135H323.385V202.135Z" fill="#B0B5CA"/>
<path d="M369.7 276.989H361.961C355.96 276.982 350.207 274.596 345.964 270.353C341.721 266.11 339.335 260.357 339.328 254.356C339.325 251.538 338.204 248.836 336.212 246.843C334.219 244.85 331.518 243.729 328.7 243.725H318.7V231.725H328.7C334.7 231.732 340.453 234.118 344.696 238.361C348.938 242.603 351.325 248.356 351.332 254.356C351.335 257.175 352.456 259.878 354.45 261.871C356.443 263.865 359.146 264.986 361.965 264.989H369.7V276.989Z" fill="#B0B5CA"/>
<path d="M328.7 184.545H317.511V172.545H328.7C331.519 172.542 334.221 171.421 336.214 169.427C338.208 167.434 339.329 164.732 339.332 161.913C339.339 155.913 341.726 150.16 345.969 145.917C350.212 141.674 355.965 139.288 361.965 139.281H369.7V151.281H361.961C359.142 151.284 356.439 152.405 354.446 154.398C352.452 156.391 351.331 159.094 351.328 161.913C351.321 167.913 348.935 173.665 344.693 177.908C340.451 182.15 334.7 184.537 328.7 184.545Z" fill="#B0B5CA"/>
<path d="M138.63 202.135H188.615V214.135H138.63V202.135Z" fill="#B0B5CA"/>
<path d="M150.039 276.989H142.3V264.989H150.039C152.858 264.986 155.561 263.865 157.554 261.871C159.548 259.878 160.669 257.175 160.672 254.356C160.679 248.357 163.065 242.605 167.307 238.362C171.549 234.12 177.301 231.733 183.3 231.725H193.3V243.725H183.3C180.481 243.728 177.779 244.849 175.786 246.842C173.792 248.835 172.671 251.537 172.668 254.356C172.661 260.356 170.275 266.108 166.033 270.351C161.791 274.594 156.039 276.981 150.039 276.989Z" fill="#B0B5CA"/>
<path d="M194.489 184.545H183.3C177.3 184.538 171.547 182.152 167.304 177.909C163.061 173.666 160.675 167.913 160.668 161.913C160.665 159.094 159.543 156.391 157.55 154.398C155.557 152.405 152.854 151.284 150.035 151.281H142.3V139.281H150.039C156.039 139.288 161.792 141.674 166.035 145.917C170.278 150.16 172.665 155.913 172.672 161.913C172.675 164.731 173.796 167.433 175.788 169.426C177.78 171.419 180.482 172.541 183.3 172.545H194.485L194.489 184.545Z" fill="#B0B5CA"/>
<path d="M106.541 192.345C103.418 195.468 101.291 199.446 100.43 203.778C99.568 208.109 100.01 212.599 101.7 216.679C103.39 220.759 106.252 224.247 109.924 226.7C113.596 229.154 117.913 230.463 122.329 230.463C126.746 230.463 131.063 229.154 134.735 226.7C138.407 224.247 141.269 220.759 142.959 216.679C144.649 212.599 145.091 208.109 144.229 203.778C143.368 199.446 141.241 195.468 138.118 192.345C136.055 190.254 133.596 188.594 130.886 187.46C128.176 186.327 125.267 185.743 122.329 185.743C119.392 185.743 116.483 186.327 113.773 187.46C111.063 188.594 108.604 190.254 106.541 192.345Z" fill="#5FA8ED"/>
<path d="M141.787 255.2C138.665 252.081 134.688 249.958 130.359 249.098C126.031 248.239 121.545 248.682 117.468 250.372C113.391 252.062 109.907 254.922 107.455 258.592C105.004 262.262 103.696 266.576 103.696 270.989C103.696 275.402 105.004 279.716 107.455 283.386C109.907 287.056 113.391 289.916 117.468 291.606C121.545 293.296 126.031 293.739 130.359 292.88C134.688 292.02 138.665 289.897 141.787 286.778C145.968 282.587 148.317 276.909 148.317 270.989C148.317 265.069 145.968 259.391 141.787 255.2Z" fill="#4CA987"/>
<path d="M110.21 129.491C107.087 132.614 104.96 136.592 104.099 140.924C103.237 145.255 103.679 149.745 105.369 153.825C107.059 157.905 109.921 161.393 113.593 163.846C117.265 166.3 121.582 167.609 125.998 167.609C130.415 167.609 134.732 166.3 138.404 163.846C142.076 161.393 144.938 157.905 146.628 153.825C148.318 149.745 148.76 145.255 147.898 140.924C147.037 136.592 144.91 132.614 141.787 129.491C137.596 125.31 131.918 122.962 125.998 122.962C120.079 122.962 114.401 125.31 110.21 129.491Z" fill="#E87187"/>
<path d="M405.459 192.345C401.806 188.693 397 186.42 391.859 185.914C386.718 185.408 381.561 186.7 377.266 189.57C372.971 192.441 369.804 196.711 368.305 201.654C366.806 206.598 367.067 211.908 369.044 216.68C371.021 221.453 374.592 225.392 379.148 227.827C383.703 230.261 388.962 231.041 394.029 230.033C399.095 229.025 403.655 226.292 406.932 222.299C410.209 218.306 412 213.3 412 208.134C411.997 202.212 409.645 196.534 405.459 192.345Z" fill="#5FA8ED"/>
<path d="M401.79 255.2C398.668 252.081 394.691 249.958 390.363 249.098C386.034 248.239 381.548 248.682 377.471 250.372C373.394 252.062 369.91 254.922 367.458 258.592C365.007 262.262 363.699 266.576 363.699 270.989C363.699 275.402 365.007 279.716 367.458 283.386C369.91 287.056 373.394 289.916 377.471 291.606C381.548 293.296 386.034 293.739 390.363 292.88C394.691 292.02 398.668 289.897 401.79 286.778C405.971 282.587 408.32 276.909 408.32 270.989C408.32 265.069 405.971 259.391 401.79 255.2Z" fill="#4CA987"/>
<path d="M401.79 129.491C398.668 126.372 394.691 124.248 390.362 123.389C386.033 122.529 381.547 122.973 377.47 124.662C373.393 126.352 369.908 129.213 367.457 132.883C365.005 136.553 363.697 140.867 363.697 145.28C363.697 149.694 365.005 154.008 367.457 157.678C369.908 161.348 373.393 164.209 377.47 165.899C381.547 167.588 386.033 168.032 390.362 167.172C394.691 166.313 398.668 164.189 401.79 161.07C405.972 156.879 408.32 151.201 408.32 145.28C408.32 139.36 405.972 133.682 401.79 129.491Z" fill="#E87187"/>
<path d="M321.99 178.54C328.379 192.779 329.99 208.703 326.584 223.933C323.178 239.164 314.937 252.884 303.091 263.045C291.246 273.207 276.431 279.264 260.86 280.313C245.288 281.361 229.795 277.345 216.694 268.864C203.593 260.383 193.587 247.891 188.169 233.255C182.752 218.619 182.214 202.623 186.636 187.655C191.057 172.688 200.202 159.553 212.704 150.21C225.205 140.868 240.393 135.82 256 135.82C269.961 135.757 283.638 139.765 295.358 147.352C307.077 154.939 316.332 165.777 321.99 178.54Z" fill="#6994FE"/>
<path d="M213.69 208.13C213.682 191.555 219.372 175.481 229.806 162.601C240.24 149.722 254.784 140.821 271 137.389C254.83 133.966 237.976 136.182 223.241 143.669C208.506 151.155 196.779 163.462 190.01 178.54C184.552 190.722 182.571 204.177 184.288 217.416C186.004 230.654 191.35 243.16 199.734 253.547C208.119 263.935 219.214 271.8 231.792 276.271C244.37 280.743 257.94 281.646 271 278.882C254.787 275.439 240.248 266.534 229.816 253.654C219.384 240.775 213.691 224.704 213.69 208.13Z" fill="#5379B7"/>
<path d="M223.579 229.147C223.609 228.876 223.662 228.608 223.739 228.347L239.247 177.8C239.971 175.389 242.947 174.264 245.917 174.264C248.97 174.264 251.943 175.389 252.666 177.8L268.175 228.342C268.259 228.602 268.313 228.87 268.335 229.142C268.335 231.633 264.559 233.481 261.746 233.481C259.979 233.481 258.612 232.919 258.211 231.392L255.157 220.705H236.757L233.7 231.4C233.3 232.927 231.933 233.489 230.165 233.489C227.355 233.486 223.579 231.719 223.579 229.147ZM252.907 212.514L245.917 187.846L238.926 212.514H252.907Z" fill="#F3CE7D"/>
<path d="M273.877 177.962C273.877 175.713 276.448 174.749 279.1 174.749C281.671 174.749 284.322 175.713 284.322 177.962V230.192C284.322 232.361 281.671 233.486 279.1 233.486C276.448 233.486 273.877 232.361 273.877 230.192V177.962Z" fill="#F3CE7D"/>
</svg>
