<svg width="512" height="512" viewBox="0 0 512 512" fill="none" xmlns="http://www.w3.org/2000/svg">
<path d="M249.19 17H83.8C81.166 17.009 78.56 17.5416 76.1337 18.5667C73.7074 19.5919 71.5091 21.0893 69.6667 22.9717C67.8242 24.8541 66.3745 27.0841 65.4016 29.5319C64.4288 31.9796 63.9523 34.5964 63.9999 37.23V93H269V37.23C269.046 34.5959 268.569 31.9787 267.595 29.5308C266.621 27.0828 265.171 24.8529 263.327 22.9705C261.484 21.0882 259.285 19.591 256.858 18.566C254.431 17.5411 251.824 17.0087 249.19 17Z" fill="#6D7486"/>
<path d="M279.27 140.73C273.459 136.003 266.961 132.189 260 129.42V93H73V129.41C46 140.19 27.715 166.54 26.415 195.97L27 196H282L294 157.014C289.943 150.871 284.977 145.38 279.27 140.73Z" fill="#D3EBEF"/>
<path d="M294 157L293.996 157.014L294 157.02V157Z" fill="#D3EBEF"/>
<path d="M280.97 196L280.81 397H26.29V199.29C26.29 198.18 26.31 197.07 26.36 195.97L27 196H280.97Z" fill="#F3CE7D"/>
<path d="M281.81 397L281.76 454.12H63.82C53.8766 454.093 44.3482 450.131 37.3162 443.101C30.2841 436.071 26.3201 426.543 26.29 416.6V397H281.81Z" fill="#D3EBEF"/>
<path d="M166.49 225.6C180.262 225.603 193.723 229.689 205.173 237.343C216.622 244.996 225.545 255.872 230.813 268.596C236.081 281.32 237.459 295.321 234.77 308.827C232.082 322.334 225.45 334.741 215.711 344.478C205.972 354.215 193.565 360.846 180.058 363.532C166.551 366.219 152.55 364.84 139.827 359.569C127.103 354.299 116.229 345.375 108.577 333.924C100.925 322.474 96.841 309.012 96.84 295.24C96.8416 276.769 104.18 259.055 117.242 245.995C130.304 232.935 148.019 225.599 166.49 225.6Z" fill="#CD656E"/>
<path d="M485.71 169.62L485.45 482.55C485.449 484.186 485.126 485.807 484.499 487.318C483.872 488.83 482.953 490.203 481.795 491.359C480.637 492.515 479.262 493.432 477.75 494.057C476.237 494.681 474.617 495.002 472.98 495H401.78C399.843 495.001 397.933 494.55 396.201 493.684C394.468 492.818 392.962 491.56 391.8 490.01L378.59 472.42L378.85 179.75L392.19 162.12C393.354 160.581 394.86 159.333 396.588 158.474C398.316 157.615 400.22 157.168 402.15 157.17H473.23C476.536 157.167 479.707 158.477 482.047 160.812C484.387 163.146 485.705 166.314 485.71 169.62Z" fill="#B3D1E7"/>
<path d="M365.65 162.075C364.49 160.515 362.985 159.244 361.251 158.364C359.518 157.483 357.604 157.016 355.66 157H284.46C281.147 157.017 277.975 158.345 275.638 160.694C273.302 163.043 271.99 166.222 271.99 169.535L271.74 482.529C271.741 485.836 273.054 489.008 275.393 491.346C277.731 493.685 280.903 494.999 284.21 495H355.3C357.228 495 359.13 494.554 360.857 493.695C362.583 492.836 364.087 491.588 365.25 490.05L378.59 472.42L378.85 179.708L365.65 162.075Z" fill="#8AAFC4"/>
<path d="M447.28 205.67C451.049 209.444 453.164 214.561 453.16 219.894C453.156 225.228 451.034 230.341 447.26 234.11C443.486 237.879 438.369 239.994 433.036 239.99C427.702 239.986 422.589 237.864 418.82 234.09L447.28 205.67Z" fill="#6D7486"/>
<path d="M447.28 205.67L418.82 234.09C416.954 232.221 415.474 230.003 414.465 227.563C413.456 225.122 412.938 222.507 412.94 219.866C412.942 217.225 413.464 214.61 414.476 212.171C415.488 209.732 416.971 207.516 418.84 205.65C420.709 203.784 422.927 202.304 425.367 201.295C427.808 200.286 430.423 199.768 433.064 199.77C435.705 199.772 438.32 200.294 440.759 201.306C443.198 202.318 445.414 203.801 447.28 205.67Z" fill="#B0B5CA"/>
<path d="M447.28 276.48C451.008 280.262 453.088 285.366 453.066 290.676C453.044 295.986 450.923 301.073 447.165 304.824C443.406 308.576 438.316 310.689 433.006 310.701C427.695 310.713 422.596 308.624 418.82 304.89L447.28 276.48Z" fill="#6D7486"/>
<path d="M447.28 276.48L418.82 304.89C416.935 303.026 415.437 300.807 414.413 298.361C413.389 295.916 412.858 293.292 412.852 290.641C412.846 287.989 413.364 285.363 414.377 282.913C415.39 280.463 416.877 278.237 418.754 276.364C420.63 274.491 422.858 273.007 425.31 271.999C427.762 270.99 430.39 270.476 433.041 270.487C435.692 270.498 438.315 271.033 440.759 272.062C443.203 273.09 445.419 274.592 447.28 276.48Z" fill="#B0B5CA"/>
<path d="M447.28 347.28C451.008 351.062 453.088 356.166 453.066 361.476C453.044 366.786 450.923 371.873 447.165 375.624C443.406 379.376 438.316 381.489 433.006 381.501C427.695 381.513 422.596 379.424 418.82 375.69L447.28 347.28Z" fill="#6D7486"/>
<path d="M447.28 347.28L418.82 375.69C415.092 371.908 413.012 366.804 413.034 361.494C413.056 356.184 415.177 351.097 418.936 347.346C422.694 343.594 427.784 341.481 433.094 341.469C438.405 341.457 443.504 343.546 447.28 347.28Z" fill="#B0B5CA"/>
<path d="M447.28 418.08L418.82 446.5C416.954 444.631 415.474 442.413 414.465 439.973C413.456 437.532 412.938 434.917 412.94 432.276C412.942 429.635 413.464 427.02 414.476 424.581C415.488 422.142 416.971 419.926 418.84 418.06C420.709 416.194 422.927 414.714 425.367 413.705C427.808 412.696 430.423 412.178 433.064 412.18C435.705 412.182 438.32 412.704 440.759 413.716C443.198 414.728 445.414 416.211 447.28 418.08Z" fill="#B0B5CA"/>
<path d="M447.28 418.08C451.049 421.854 453.164 426.971 453.16 432.304C453.156 437.638 451.034 442.751 447.26 446.52C443.486 450.289 438.369 452.404 433.036 452.4C427.702 452.396 422.589 450.274 418.82 446.5L447.28 418.08Z" fill="#6D7486"/>
<path d="M338.63 418.08C342.362 421.863 344.446 426.969 344.426 432.283C344.406 437.598 342.284 442.688 338.523 446.443C334.761 450.197 329.667 452.31 324.353 452.321C319.039 452.332 313.936 450.239 310.16 446.5L338.63 418.08Z" fill="#6D7486"/>
<path d="M310.16 418.08C313.938 414.31 319.058 412.193 324.395 412.193C329.732 412.193 334.852 414.31 338.63 418.08L310.16 446.5C308.294 444.634 306.813 442.419 305.803 439.981C304.792 437.543 304.272 434.929 304.272 432.29C304.272 429.651 304.792 427.037 305.803 424.599C306.813 422.161 308.294 419.946 310.16 418.08Z" fill="#B0B5CA"/>
<path d="M338.63 347.28C342.397 351.055 344.511 356.173 344.505 361.506C344.499 366.84 342.375 371.953 338.6 375.72C334.825 379.487 329.707 381.601 324.374 381.595C319.04 381.589 313.927 379.465 310.16 375.69L338.63 347.28Z" fill="#6D7486"/>
<path d="M338.63 347.28L310.16 375.69C306.393 371.915 304.279 366.797 304.285 361.464C304.291 356.13 306.415 351.017 310.19 347.25C313.965 343.483 319.083 341.369 324.416 341.375C329.75 341.381 334.863 343.505 338.63 347.28Z" fill="#B0B5CA"/>
<path d="M338.63 276.48C342.397 280.255 344.511 285.373 344.505 290.706C344.499 296.04 342.375 301.153 338.6 304.92C334.825 308.687 329.707 310.801 324.374 310.795C319.04 310.789 313.927 308.665 310.16 304.89L338.63 276.48Z" fill="#6D7486"/>
<path d="M338.63 276.48L310.16 304.89C308.295 303.021 306.816 300.802 305.808 298.361C304.8 295.92 304.282 293.305 304.285 290.664C304.288 288.023 304.811 285.408 305.824 282.97C306.837 280.531 308.321 278.315 310.19 276.45C312.059 274.585 314.278 273.106 316.719 272.098C319.16 271.09 321.775 270.572 324.416 270.575C327.057 270.578 329.672 271.101 332.11 272.114C334.549 273.127 336.765 274.611 338.63 276.48Z" fill="#B0B5CA"/>
<path d="M310.16 205.67C313.941 201.904 319.059 199.79 324.395 199.79C329.731 199.79 334.85 201.904 338.63 205.67L310.16 234.09C308.294 232.224 306.813 230.009 305.803 227.571C304.792 225.133 304.272 222.519 304.272 219.88C304.272 217.241 304.792 214.627 305.803 212.189C306.813 209.751 308.294 207.536 310.16 205.67Z" fill="#B0B5CA"/>
<path d="M338.63 205.67C342.362 209.453 344.446 214.559 344.426 219.873C344.406 225.188 342.284 230.278 338.523 234.032C334.761 237.787 329.667 239.9 324.353 239.911C319.039 239.922 313.936 237.829 310.16 234.09L338.63 205.67Z" fill="#6D7486"/>
<path d="M94 37.23C93.9523 34.5964 94.4288 31.9796 95.4016 29.5319C96.3745 27.0841 97.8242 24.8541 99.6667 22.9717C101.509 21.0893 103.707 19.5919 106.134 18.5667C108.56 17.5416 111.166 17.009 113.8 17H83.8C81.166 17.009 78.56 17.5416 76.1337 18.5667C73.7074 19.5919 71.5091 21.0893 69.6667 22.9717C67.8242 24.8541 66.3745 27.0841 65.4016 29.5319C64.4288 31.9796 63.9523 34.5964 63.9999 37.23V93H94V37.23Z" fill="#575E6D"/>
<path d="M56.359 196H27L26.36 195.97C26.31 197.07 26.29 198.18 26.29 199.29V397H56.29V199.29C56.29 198.19 56.31 197.09 56.359 196Z" fill="#D6B46E"/>
<path d="M103 129.41V93H73V129.41C46 140.19 27.715 166.54 26.415 195.97L27 196H57L56.415 195.97C57.715 166.54 76 140.19 103 129.41Z" fill="#BDD3D6"/>
<path d="M56.29 416.6V397H26.29V416.6C26.3201 426.543 30.2841 436.071 37.3162 443.101C44.3482 450.131 53.8766 454.093 63.82 454.12H93.82C83.8766 454.093 74.3482 450.131 67.3162 443.101C60.2841 436.071 56.3201 426.543 56.29 416.6Z" fill="#BDD3D6"/>
<path d="M126.84 295.24C126.844 279.376 132.264 263.989 142.202 251.624C152.14 239.259 166.001 230.657 181.492 227.24C171.318 224.996 160.77 225.063 150.626 227.436C140.481 229.81 130.998 234.43 122.877 240.955C114.755 247.481 108.201 255.746 103.697 265.141C99.1938 274.536 96.856 284.821 96.856 295.24C96.856 305.659 99.1938 315.944 103.697 325.339C108.201 334.734 114.755 342.999 122.877 349.525C130.998 356.05 140.481 360.67 150.626 363.044C160.77 365.417 171.318 365.484 181.492 363.24C166 359.825 152.137 351.224 142.199 338.858C132.261 326.493 126.842 311.104 126.84 295.24Z" fill="#B25762"/>
<path d="M202 288V309H176V335H154V309H127V288H154V260H176V288H202Z" fill="#D4E1F4"/>
<path d="M56.2581 346.868C54.6668 346.868 53.1406 346.236 52.0154 345.111C50.8902 343.985 50.2581 342.459 50.2581 340.868V251.2C50.2581 249.609 50.8902 248.083 52.0154 246.957C53.1406 245.832 54.6668 245.2 56.2581 245.2C57.8494 245.2 59.3755 245.832 60.5007 246.957C61.6259 248.083 62.2581 249.609 62.2581 251.2V340.865C62.2585 341.653 62.1035 342.434 61.8022 343.162C61.5008 343.89 61.0589 344.552 60.5018 345.11C59.9446 345.667 59.283 346.109 58.5549 346.411C57.8267 346.713 57.0462 346.868 56.2581 346.868Z" fill="#F4F8FC"/>
<path d="M56.2581 236.713C54.6668 236.713 53.1406 236.081 52.0154 234.956C50.8902 233.83 50.2581 232.304 50.2581 230.713V225.356C50.2581 223.765 50.8902 222.239 52.0154 221.113C53.1406 219.988 54.6668 219.356 56.2581 219.356C57.8494 219.356 59.3755 219.988 60.5007 221.113C61.6259 222.239 62.2581 223.765 62.2581 225.356V230.713C62.2581 232.304 61.6259 233.83 60.5007 234.956C59.3755 236.081 57.8494 236.713 56.2581 236.713Z" fill="#F4F8FC"/>
</svg>
