<svg width="512" height="512" viewBox="0 0 512 512" fill="none" xmlns="http://www.w3.org/2000/svg">
<path d="M468.3 146H43.7C30.6 146 20 156.3 20 169.4V448.3C20 461.4 30.6 472 43.7 472H468.3C481.4 472 492 461.4 492 448.3V169.4C492 156.3 481.4 146 468.3 146Z" fill="#6D7486"/>
<path d="M354.6 180.5H80.3C67.2 180.5 56.6 191.1 56.6 204.2V410C56.6 423.1 67.2 433.7 80.3 433.7H354.6C367.7 433.7 378.3 423.1 378.3 410V204.2C378.3 191.2 367.7 180.5 354.6 180.5Z" fill="#D4E1F4"/>
<path d="M435.2 218.3C443.3 218.3 449.9 224.9 449.9 233C449.9 241.1 443.3 247.7 435.2 247.7C427.1 247.7 420.5 241.1 420.5 233C420.5 224.9 427 218.3 435.2 218.3Z" fill="#4A5160"/>
<path d="M435.2 268.2C443.3 268.2 449.9 274.8 449.9 282.9C449.9 291 443.3 297.6 435.2 297.6C427.1 297.6 420.5 291 420.5 282.9C420.5 274.8 427 268.2 435.2 268.2Z" fill="#4A5160"/>
<path d="M435.7 406C456.521 406 473.4 389.121 473.4 368.3C473.4 347.479 456.521 330.6 435.7 330.6C414.879 330.6 398 347.479 398 368.3C398 389.121 414.879 406 435.7 406Z" fill="#B0B5CA"/>
<path d="M75.1 472H437V495.2H75.1V472Z" fill="#4A5160"/>
<path d="M253.8 233.4L255.9 238.6C261.4 252.6 261.5 268.1 256 282.1C255.4 281.9 254.8 281.8 254.2 281.8H252.5V270.3C252.5 265.1 251 261 248.5 257.6C246 254.2 242.4 251.6 238.1 249.3C236.2 256.9 227.3 259.7 216.7 259.7C206.9 259.7 198.7 257.8 195.9 251V250.9C188.8 255.8 184.2 261 184.2 270.2V281.7H182.5C181.6 281.7 180.7 281.9 179.9 282.3L177.8 277.1C173.6 266.4 173.6 254.5 177.8 243.8L178.1 243C179.2 240.3 181.7 238.6 184.6 238.6C186.9 238.6 189 237.7 190.6 236.1C192.1 234.6 193.1 232.5 193.1 230.1C193.1 228.1 193.8 226.2 195 224.8C196.2 223.4 197.8 222.3 199.7 221.9C200.6 221.7 201.6 221.7 202.5 221.8C208.6 222.6 243.8 226.7 256.1 221.7V226C255.9 228.7 255.1 231.2 253.8 233.4Z" fill="#6D7486"/>
<path d="M309.1 372.5C306.6 365.4 301.9 359.4 295.8 355.2C292.9 353.2 289.9 351.6 286.5 350.4L241 335H194L148.5 350.4C145.2 351.5 142.2 353.1 139.3 355C132.4 359.7 127.3 366.7 125.1 375C124.5 377.2 124.1 379.4 124.1 381.6V434H151.6H194.4H194.5H240.7H283.9H311V381.7C311 378.5 310.1 375.4 309.1 372.5Z" fill="#DDD164"/>
<path d="M311.1 381.7V433.7H283.7V387C283.7 375.1 288.1 363.8 295.7 355.2C301.8 359.4 306.5 365.4 309 372.5C310.2 375.4 310.9 378.5 311.1 381.7Z" fill="#C1B55B"/>
<path d="M255.1 377.9L263.6 365.6L241 339.2V434H240.6L265.9 387.1L255.1 377.9Z" fill="#C1B55B"/>
<path d="M240.5 351.4C226.7 361.2 208 361.2 194 351.4V434H241V351.4H240.5Z" fill="#4689D3"/>
<path d="M171.3 365.6L179.7 377.9L169 387.1L194.3 434H194V339.3L171.3 365.6Z" fill="#C1B55B"/>
<path d="M151.5 387V433.6H123.8V381.6C124 379.3 124.4 377.1 125 374.9C127.3 366.6 132.5 359.6 139.4 354.9L139.5 355C147.1 363.8 151.5 375.1 151.5 387Z" fill="#C1B55B"/>
<path d="M240.7 324.5C234.7 329.6 226.6 332.8 218.1 332.8C208.8 332.8 201 329 194 323V351.5C208 361.3 226.7 361.3 240.5 351.5H241V324.7L240.7 324.5Z" fill="#EFC597"/>
<path d="M256 282.1C258.6 282.9 260.6 285.3 260.6 288.2C260.6 290 259.9 291.6 258.7 292.7C257.5 293.9 255.9 294.6 254.2 294.6H252.5V298.5C252.5 308.9 247.9 318.2 240.6 324.4C234.6 329.5 226.8 332.7 218.3 332.7C209 332.7 200.6 329 194.5 323C194.4 322.9 194.3 322.8 194.1 322.6C187.9 316.4 184.1 307.9 184.1 298.4V294.5H182.4C178.9 294.5 176 291.6 176 288.1C176 286.3 176.7 284.7 177.9 283.6C178.5 283.1 179.1 282.6 179.8 282.3C180.6 281.9 181.5 281.7 182.4 281.7H184.1V270.2C184.1 260.9 188.7 255.8 195.8 250.9V251C198.6 257.8 206.8 259.7 216.6 259.7C227.2 259.7 236 256.9 238 249.3C242.3 251.6 245.9 254.2 248.4 257.6C250.9 261 252.4 265.1 252.4 270.3V281.8H254.1C254.8 281.8 255.4 281.9 256 282.1Z" fill="#FFD8B7"/>
<path d="M75.1 472H105.1V495.2H75.1V472Z" fill="#636D7F"/>
<path d="M110.3 433.7C97.2 433.7 86.6 423.1 86.6 410V204.2C86.6 191.1 97.2 180.5 110.3 180.5H80.3C67.2 180.5 56.6 191.1 56.6 204.2V410C56.6 423.1 67.2 433.7 80.3 433.7H110.3Z" fill="#B2C1D3"/>
<path d="M74.3 264.6C72.8 264.6 71.4 264.1 70.2 263C67.8 260.7 67.6 256.9 69.9 254.5L124.1 196.5C126.4 194.1 130.2 193.9 132.6 196.2C135 198.5 135.2 202.3 132.9 204.7L78.7 262.7C77.6 264 76 264.6 74.3 264.6Z" fill="#F4F8FC"/>
<path d="M100.1 266.4C98.6 266.4 97 265.8 95.9 264.6C93.6 262.3 93.6 258.5 95.9 256.1L120.3 231.7C122.6 229.4 126.4 229.4 128.8 231.7C131.1 234 131.1 237.8 128.8 240.2L104.4 264.6C103.2 265.8 101.7 266.4 100.1 266.4Z" fill="#F4F8FC"/>
<path d="M313.2 12.6L235.6 94L201.4 31.5C199.8 28.6 196.2 27.5 193.3 29.1C190.4 30.7 189.3 34.3 190.9 37.2L226.6 102.4C227.7 104.4 229.7 105.5 231.9 105.5C232.8 105.5 233.6 105.3 234.4 104.9C235.5 105.7 236.7 106.1 238 106.1C239.6 106.1 241.2 105.5 242.3 104.2L321.9 20.7C324.2 18.3 324.1 14.5 321.7 12.2C319.3 10.1 315.5 10.2 313.2 12.6Z" fill="#D4E1F4"/>
<path d="M463.5 341.1C463 341.4 462.6 342 462.2 342H438.5C435.2 342 432.5 344.7 432.5 348C432.5 351.3 435.2 354 438.5 354H464.7C465.8 357 466.7 360 467.1 362H454.2C450.9 362 448.2 364.7 448.2 368C448.2 371.3 450.9 374 454.2 374H467.1C466.6 377 465.8 379 464.6 382H438.4C435.1 382 432.4 384.7 432.4 388C432.4 391.3 435.1 394 438.4 394H455C449.5 398 442.6 400.9 435.1 400.9C427.6 400.9 420.7 398 415.2 394H417.7C421 394 423.7 391.3 423.7 388C423.7 384.7 421 382 417.7 382H405.6C404.5 379 403.6 377 403.1 374H433.6C436.9 374 439.6 371.3 439.6 368C439.6 364.7 436.9 362 433.6 362H403.1C403.6 359 404.4 357 405.6 354H417.7C421 354 423.7 351.3 423.7 348C423.7 344.7 421 342 417.7 342H415.2C420.7 338 427.6 335.4 435.1 335.4C438.4 335.4 441.1 332.8 441.1 329.5C441.1 326.2 438.4 323.6 435.1 323.6C419 323.6 404.8 332.2 397 345.1C396.8 345.3 396.7 345.6 396.6 345.8C392.8 352.4 390.6 360 390.6 368.1C390.6 376.2 392.8 383.8 396.6 390.4C396.7 390.7 396.9 390.9 397 391.2C404.8 404.1 419 412.7 435.1 412.7C451.2 412.7 465.4 404.1 473.2 391.2C473.4 390.9 473.5 390.7 473.7 390.4C477.5 383.8 479.7 376.2 479.7 368.1C479.7 359 477 350.2 471.8 342.8C469.9 340.1 466.2 339.2 463.5 341.1Z" fill="#4A5160"/>
<path d="M450.4 338C451.3 338.5 452.2 339.1 453 339.7C454.1 340.5 455.3 340.8 456.5 340.8C458.4 340.8 460.2 339.9 461.4 338.3C463.3 335.6 462.7 331.9 460 329.9C458.8 329.1 457.6 328.3 456.4 327.6C453.5 325.9 449.9 326.9 448.2 329.8C446.6 332.7 447.5 336.4 450.4 338Z" fill="#4A5160"/>
<path d="M381.9 101H130.1C105.4 101 85 121.3 85 145.9V147H426V145.9C426 121.3 406.5 101 381.9 101Z" fill="#4A5160"/>
<path d="M115 145.9C115 121.3 135.5 101 160.1 101H130.1C105.4 101 85 121.3 85 145.9V147H115V145.9Z" fill="#636D7F"/>
</svg>
